<svg width="320" height="67" viewBox="0 0 320 67" fill="none" xmlns="http://www.w3.org/2000/svg">
<g clip-path="url(#clip0_393_2217)">
<path opacity="0.5" d="M0 0.771484L0.100157 66.1192C31.2764 45.9492 61.6577 32.5971 103.251 43.8726C145.449 55.3437 184.058 57.1198 224.041 35.8221C251.199 21.3607 279.382 18.6957 311.108 29.1342C347.84 42.0257 386.641 40.8283 422.845 25.6857C450.511 14.5008 478.326 1.4148 503.352 7.73425L503.34 2.40054e-05L0 0.771484Z" fill="#404BEB"/>
<path d="M0 0.771484L0.0750426 49.7331C31.2513 29.5632 61.6377 19.4883 103.231 30.7637C145.428 42.2349 184.043 47.2882 224.025 25.9905C251.184 11.5291 279.372 12.1413 311.098 22.5798C349.623 35.2364 384.861 37.7386 422.84 22.4085C450.506 11.2236 478.326 1.4148 503.352 7.73425L503.34 2.40054e-05L0 0.771484Z" fill="#404BEB"/>
</g>
<defs>
<clipPath id="clip0_393_2217">
<rect width="503.341" height="65.5444" fill="white" transform="translate(0 0.771484) rotate(-0.0878162)"/>
</clipPath>
</defs>
</svg>
